HIERARCHY
ROOT joint_Root
{
	OFFSET 0.0 0.0 0.0
	CHANNELS 6 Xposition Yposition Zposition Zrotation Xrotation Yrotation 
	JOINT Hips
	{
		OFFSET -17.1583 93.1646 452.98
		CHANNELS 6 Xposition Yposition Zposition Zrotation Xrotation Yrotation 
		JOINT Spine
		{
			OFFSET 15.7357 0.0 0.0
			CHANNELS 6 Xposition Yposition Zposition Zrotation Xrotation Yrotation 
			JOINT Chest
			{
				OFFSET 8.98455 -0.406207 0.0
				CHANNELS 6 Xposition Yposition Zposition Zrotation Xrotation Yrotation 
				JOINT Neck
				{
					OFFSET 16.3773 0.0 0.0
					CHANNELS 6 Xposition Yposition Zposition Zrotation Xrotation Yrotation 
					JOINT Head
					{
						OFFSET 6.45672 0.0 0.0
						CHANNELS 6 Xposition Yposition Zposition Zrotation Xrotation Yrotation 
						End Site
						{
							OFFSET 0.0 0.0 0.0
						}
					}
				}
				JOINT Shoulder_L
				{
					OFFSET 12.9942 -0.242716 4.98039
					CHANNELS 6 Xposition Yposition Zposition Zrotation Xrotation Yrotation 
					JOINT UpperArm_L
					{
						OFFSET 5.34809 0.0 0.0
						CHANNELS 6 Xposition Yposition Zposition Zrotation Xrotation Yrotation 
						JOINT LowerArm_L
						{
							OFFSET 24.3286 1.87007e-05 0.0
							CHANNELS 6 Xposition Yposition Zposition Zrotation Xrotation Yrotation 
							JOINT Hand_L
							{
								OFFSET 22.2916 0.0 0.0
								CHANNELS 6 Xposition Yposition Zposition Zrotation Xrotation Yrotation 
								End Site
								{
									OFFSET 0.0 0.0 0.0
								}
							}
						}
					}
				}
				JOINT Shoulder_R
				{
					OFFSET 12.9945 -0.242716 -4.98039
					CHANNELS 6 Xposition Yposition Zposition Zrotation Xrotation Yrotation 
					JOINT UpperArm_R
					{
						OFFSET -5.34813 0.0 0.0
						CHANNELS 6 Xposition Yposition Zposition Zrotation Xrotation Yrotation 
						JOINT LowerArm_R
						{
							OFFSET -24.3289 0.000322201 0.0
							CHANNELS 6 Xposition Yposition Zposition Zrotation Xrotation Yrotation 
							JOINT Hand_R
							{
								OFFSET -22.2915 -0.000108084 0.0
								CHANNELS 6 Xposition Yposition Zposition Zrotation Xrotation Yrotation 
								End Site
								{
									OFFSET 0.0 0.0 0.0
								}
							}
						}
					}
				}
			}
		}
		JOINT UpperLeg_L
		{
			OFFSET -2.19248 -6.46944 0.0
			CHANNELS 6 Xposition Yposition Zposition Zrotation Xrotation Yrotation 
			JOINT LowerLeg_L
			{
				OFFSET 39.0811 0.0 -1.23785e-05
				CHANNELS 6 Xposition Yposition Zposition Zrotation Xrotation Yrotation 
				JOINT Foot_L
				{
					OFFSET 40.9854 0.0 -1.26872e-05
					CHANNELS 6 Xposition Yposition Zposition Zrotation Xrotation Yrotation 
					JOINT Toes_L
					{
						OFFSET 11.7543 0.0 0.0
						CHANNELS 6 Xposition Yposition Zposition Zrotation Xrotation Yrotation 
						End Site
						{
							OFFSET 0.0 0.0 0.0
						}
					}
				}
			}
		}
		JOINT UpperLeg_R
		{
			OFFSET -2.19251 6.46944 0.0
			CHANNELS 6 Xposition Yposition Zposition Zrotation Xrotation Yrotation 
			JOINT LowerLeg_R
			{
				OFFSET -39.0811 -0.00228153 -0.0401928
				CHANNELS 6 Xposition Yposition Zposition Zrotation Xrotation Yrotation 
				JOINT Foot_R
				{
					OFFSET -40.9854 0.0 0.0
					CHANNELS 6 Xposition Yposition Zposition Zrotation Xrotation Yrotation 
					JOINT Toes_R
					{
						OFFSET -11.7543 0.0 0.0
						CHANNELS 6 Xposition Yposition Zposition Zrotation Xrotation Yrotation 
						End Site
						{
							OFFSET 0.0 0.0 0.0
						}
					}
				}
			}
		}
	}
}
MOTION
Frames:	4
Frame Time:	0.0333333
0.000000 0.000000 0.000000 0.000000 0.000000 -0.000000 -0.869689 93.103600 -1.056340 87.075900 0.012310 -0.763040 15.735700 0.000005 -0.000001 71.936000 88.561500 -70.005600 8.984550 -0.406207 -0.000000 -5.009680 -1.106250 3.815650 16.377300 -0.000001 -0.000001 4.945960 2.840420 -2.279060 6.456720 -0.000001 -0.000000 7.172900 3.168490 -0.776513 12.994200 -0.242716 4.980390 -92.361000 7.343730 -72.122600 5.348090 -0.000007 -0.000001 -74.268300 31.831400 1.925240 24.328600 0.000019 0.000005 12.462700 27.470000 -25.600200 22.291600 -0.000001 0.000005 -3.137240 4.962460 8.107740 12.994500 -0.242716 -4.980390 88.663000 4.234510 -72.459800 -5.348130 -0.000001 -0.000004 -71.928100 27.829900 0.974223 -24.328900 0.000322 -0.000009 3.580200 7.975540 -24.278700 -22.291500 -0.000108 -0.000004 -0.282641 5.296230 0.178332 -2.192480 -6.469440 -0.000000 -176.792000 0.669404 -4.370430 39.081100 -0.000007 -0.000012 0.186938 -0.549798 18.779000 40.985400 -0.000006 -0.000013 2.180790 7.032280 -71.241900 11.754300 -0.000000 0.000003 0.000342 0.161658 -10.020300 -2.192510 6.469440 -0.000001 -175.047000 5.745670 -179.737000 -39.081100 -0.002282 -0.040193 0.004865 -0.007710 11.208500 -40.985400 0.000008 0.000006 -3.014830 2.340510 -67.320500 -11.754300 -0.000006 -0.000006 -0.009842 0.270119 -5.599510
0.000000 0.000000 0.000000 0.000000 0.000000 -0.000000 -0.924161 93.096900 -1.115500 87.076500 -0.002602 -0.719716 15.735700 0.000005 -0.000001 71.919900 88.547300 -69.987000 8.984550 -0.406207 -0.000000 -4.982790 -1.115650 3.820580 16.377300 -0.000001 -0.000001 5.040880 2.820840 -2.230590 6.456720 -0.000001 -0.000000 6.933710 3.178870 -0.642561 12.994200 -0.242716 4.980390 -92.375300 7.376880 -72.096300 5.348090 -0.000007 -0.000001 -74.175700 31.713000 1.868830 24.328600 0.000019 0.000005 12.406400 27.320800 -25.607800 22.291600 -0.000001 0.000005 -3.112070 4.961240 8.133180 12.994500 -0.242716 -4.980390 88.633600 4.317110 -72.417800 -5.348130 -0.000001 -0.000004 -71.411000 27.048700 1.136370 -24.328900 0.000322 -0.000009 3.782490 8.025400 -25.346100 -22.291500 -0.000108 -0.000004 -0.729682 5.295650 0.193928 -2.192480 -6.469440 -0.000000 -176.764000 0.699125 -4.419480 39.081100 -0.000007 -0.000012 0.188873 -0.552440 18.875400 40.985400 -0.000006 -0.000013 2.146660 7.013440 -71.202600 11.754300 -0.000000 0.000003 0.000432 0.159998 -10.087700 -2.192510 6.469440 -0.000001 -174.993000 5.711150 -179.794000 -39.081100 -0.002282 -0.040193 0.006041 -0.013501 11.325200 -40.985400 0.000008 0.000006 -2.831490 2.292140 -67.362300 -11.754300 -0.000006 -0.000006 -0.009756 0.269469 -5.626070
0.000000 0.000000 0.000000 0.000000 0.000000 -0.000000 -0.969683 93.099600 -1.158820 87.081300 -0.030113 -0.683250 15.735700 0.000005 -0.000001 71.937900 88.526800 -69.999700 8.984550 -0.406207 -0.000000 -4.943220 -1.127430 3.830950 16.377300 -0.000001 -0.000001 5.042060 2.815190 -2.133140 6.456720 -0.000001 -0.000000 6.704920 3.207740 -0.490542 12.994200 -0.242716 4.980390 -92.396900 7.411360 -72.022100 5.348090 -0.000007 -0.000001 -74.093300 31.609200 1.791670 24.328600 0.000019 0.000005 12.422600 27.304200 -25.650600 22.291600 -0.000001 0.000005 -3.132340 4.959410 8.171020 12.994500 -0.242716 -4.980390 88.602500 4.379890 -72.284700 -5.348130 -0.000001 -0.000004 -70.799600 26.144300 1.195970 -24.328900 0.000322 -0.000009 3.995670 7.994730 -26.673500 -22.291500 -0.000108 -0.000004 -1.069680 5.289320 0.370442 -2.192480 -6.469440 -0.000000 -176.727000 0.676812 -4.410000 39.081100 -0.000007 -0.000012 0.185850 -0.543733 18.870900 40.985400 -0.000006 -0.000013 2.102730 7.014350 -71.142500 11.754300 -0.000000 0.000003 0.000559 0.157623 -10.184200 -2.192510 6.469440 -0.000001 -174.953000 5.691480 -179.794000 -39.081100 -0.002282 -0.040193 0.006262 -0.014602 11.330200 -40.985400 0.000008 0.000006 -2.731340 2.257020 -67.359800 -11.754300 -0.000006 -0.000006 -0.010068 0.271809 -5.530360
0.000000 0.000000 0.000000 0.000000 0.000000 -0.000000 -1.023320 93.096500 -1.214480 87.082400 -0.038479 -0.636741 15.735700 0.000005 -0.000001 71.600800 88.505800 -69.659200 8.984550 -0.406207 -0.000000 -4.908370 -1.156900 3.836800 16.377300 -0.000001 -0.000001 5.024820 2.765840 -1.975430 6.456720 -0.000001 -0.000000 6.490400 3.263430 -0.328926 12.994200 -0.242716 4.980390 -92.421700 7.462000 -71.962300 5.348090 -0.000007 -0.000001 -74.015700 31.472200 1.749590 24.328600 0.000019 0.000005 12.362300 27.164600 -25.644100 22.291600 -0.000001 0.000005 -3.002460 4.957640 8.207590 12.994500 -0.242716 -4.980390 88.570500 4.437760 -72.125000 -5.348130 -0.000001 -0.000004 -70.209300 24.770800 1.320770 -24.328900 0.000322 -0.000009 4.190400 7.796370 -28.380600 -22.291500 -0.000108 -0.000004 -1.606910 5.277780 0.687267 -2.192480 -6.469440 -0.000000 -176.696000 0.707434 -4.437120 39.081100 -0.000007 -0.000012 0.188510 -0.548910 18.954200 40.985400 -0.000006 -0.000013 2.058620 6.983520 -71.205100 11.754300 -0.000000 0.000003 0.000405 0.160503 -10.067200 -2.192510 6.469440 -0.000001 -174.901000 5.565850 -179.828000 -39.081100 -0.002282 -0.040193 0.007571 -0.020946 11.430500 -40.985400 0.000008 0.000006 -2.670440 2.155240 -67.442400 -11.754300 -0.000006 -0.000006 -0.010402 0.274282 -5.429220
